<svg xmlns="http://www.w3.org/2000/svg" width="20" height="20" viewBox="0 0 533.5 544.3">
  <path fill="#4285F4" d="M533.5 278.4c0-17.4-1.6-34.1-4.6-50.4H272v95.3h146.9c-6.4 34.7-25.9 64.1-55.2 83.8v68h88.9c52.1-48 81.9-118.7 81.9-196.7z"/>
  <path fill="#34A853" d="M272 544.3c74.6 0 137.1-24.7 182.8-67.2l-88.9-68c-24.7 16.6-56.5 26.3-93.9 26.3-72 0-133-48.5-154.7-113.6H25.1v71.4C70.5 480.7 164.5 544.3 272 544.3z"/>
  <path fill="#FBBC05" d="M117.3 321.8c-11.3-33.7-11.3-70.1 0-103.8v-71.4H25.1c-36.5 72.7-36.5 156.7 0 229.4l92.2-54.2z"/>
  <path fill="#EA4335" d="M272 107.7c39.9 0 75.7 13.7 103.9 40.5l77.6-77.6C409.1 24.2 346.6 0 272 0 164.5 0 70.5 63.6 25.1 155.4l92.2 71.4c21.7-65.1 82.7-113.6 154.7-113.6z"/>
</svg>